<svg width="40" height="40" viewBox="0 0 40 40" fill="none" xmlns="http://www.w3.org/2000/svg">
<circle cx="20" cy="20" r="20" fill="#F3F3F3"/>
<mask id="mask0" mask-type="alpha" maskUnits="userSpaceOnUse" x="0" y="0" width="40" height="40">
<circle cx="20" cy="20" r="20" fill="white"/>
</mask>
<g mask="url(#mask0)">
<path fill-rule="evenodd" clip-rule="evenodd" d="M19.9999 12.91L18.0416 16.8773C17.9116 17.1406 17.6606 17.3232 17.3701 17.3656L12.9895 18.0059L16.1586 21.0925C16.3692 21.2977 16.4653 21.5933 16.4156 21.8831L15.6679 26.2426L19.5843 24.183C19.8445 24.0462 20.1553 24.0462 20.4155 24.183L24.3319 26.2426L23.5842 21.8831C23.5345 21.5933 23.6306 21.2977 23.8412 21.0925L27.0102 18.0059L22.6297 17.3656C22.3392 17.3232 22.0881 17.1406 21.9582 16.8773L19.9999 12.91ZM16.6479 15.6665L19.1993 10.4977C19.5268 9.83411 20.473 9.83411 20.8005 10.4977L23.3519 15.6665L29.0576 16.5005C29.7897 16.6075 30.0814 17.5073 29.5514 18.0235L25.4236 22.0441L26.3978 27.7241C26.5229 28.4535 25.7572 29.0097 25.1022 28.6652L19.9999 25.982L14.8976 28.6652C14.2426 29.0097 13.4769 28.4535 13.602 27.7241L14.5762 22.0441L10.4483 18.0235C9.91835 17.5073 10.2101 16.6075 10.9422 16.5005L16.6479 15.6665Z" fill="#B9B9B9"/>
</g>
</svg>
