<svg width="196" height="49" viewBox="0 0 196 49" fill="none" xmlns="http://www.w3.org/2000/svg">
<path fill-rule="evenodd" clip-rule="evenodd" d="M79.2708 39.1862C81.897 39.1862 83.9704 41.2595 83.9704 43.8166C83.9704 46.3738 81.8279 48.4471 79.2708 48.4471C76.6445 48.4471 74.5712 46.3738 74.5712 43.8166C74.5021 41.2595 76.6445 39.1862 79.2708 39.1862ZM98.1382 36.8364C101.386 36.8364 103.944 39.3935 103.944 42.5726C103.944 45.7518 101.317 48.3089 98.1382 48.3089C94.9591 48.3089 92.3328 45.7518 92.3328 42.5726C92.3328 39.3935 94.89 36.8364 98.1382 36.8364ZM104.98 40.0846H124.193L126.889 32.4133H113.55V1.65867H104.98V40.0846ZM83.4866 38.9788V23.6361C83.4866 19.6968 85.5599 17.6234 88.8082 17.6234C92.0564 17.6234 93.9224 19.6276 93.9224 23.6361V36.0762C95.1664 35.3159 96.6177 34.8322 98.1382 34.8322C99.7278 34.8322 101.179 35.3159 102.354 36.0762V21.0099C102.354 14.237 98.622 10.0903 92.1946 10.0903C87.9097 10.0903 85.4217 12.3709 83.4175 14.7898V0H74.9168V38.9788C76.0225 38.0113 77.543 37.4584 79.1326 37.4584C80.8603 37.4584 82.3117 38.0113 83.4866 38.9788Z" fill="#EBB105"/>
<path fill-rule="evenodd" clip-rule="evenodd" d="M0 40.0846H8.56982V25.2257H27.2299V17.4852H8.56982V9.33005H29.7179V1.65868H0V40.0846Z" fill="#254F9C"/>
<path fill-rule="evenodd" clip-rule="evenodd" d="M34.1409 7.39492H43.0562V0H34.1409V7.39492ZM34.4173 40.0846H42.8489V10.6432H34.4173V40.0846Z" fill="#254F9C"/>
<path fill-rule="evenodd" clip-rule="evenodd" d="M59.5739 40.6375C66.0704 40.6375 70.9773 37.6657 70.9773 31.1693V31.031C70.9773 25.6403 66.1395 23.7052 61.9237 22.323C58.6755 21.2172 55.8419 20.457 55.8419 18.7983V18.6601C55.8419 17.4852 56.8786 16.6559 58.9519 16.6559C61.0944 16.6559 64.0662 17.6925 67.038 19.4203L70.2862 13.6841C67.038 11.5416 62.9604 10.2976 59.1593 10.2976C53.1466 10.2976 48.2397 13.615 48.2397 19.6276V19.7659C48.2397 25.5021 53.0084 27.3681 57.155 28.6121C60.4724 29.5797 63.3751 30.2017 63.3751 31.9986V32.1368C63.3751 33.4499 62.2693 34.3484 59.7813 34.3484C57.0168 34.3484 53.5613 33.1735 50.3821 30.8237L46.7883 36.2835C50.7277 39.2553 55.4273 40.6375 59.5739 40.6375Z" fill="#254F9C"/>
<path fill-rule="evenodd" clip-rule="evenodd" d="M145.203 40.7066C154.533 40.7066 161.444 33.8646 161.444 25.3639V25.2257C161.444 16.7941 154.602 10.0211 145.341 10.0211C136.011 10.0211 129.1 16.8632 129.1 25.3639V25.5021C129.1 34.0028 135.942 40.7066 145.203 40.7066ZM145.272 33.519C140.573 33.519 137.393 29.7179 137.393 25.3639V25.2257C137.393 20.8716 140.296 17.2087 145.134 17.2087C149.834 17.2087 153.013 21.0099 153.013 25.3639V25.5021C153.082 29.8561 150.179 33.519 145.272 33.519Z" fill="#254F9C"/>
<path fill-rule="evenodd" clip-rule="evenodd" d="M179.275 49C185.081 49 189.365 47.8251 192.13 45.0607C194.618 42.5726 195.931 38.7715 195.931 33.4499V10.6432H187.43V14.5134C185.15 12.0254 182.385 10.0903 177.824 10.0903C170.982 10.0903 164.554 15.0663 164.554 23.8434V23.9817C164.554 32.6897 170.844 37.7348 177.824 37.7348C182.316 37.7348 185.081 35.9379 187.569 32.9662V34.4175C187.569 39.67 184.804 42.4344 179.068 42.4344C175.128 42.4344 172.018 41.4669 168.978 39.7391L166.075 46.0282C169.807 47.8942 174.368 49 179.275 49ZM180.243 30.7546C176.096 30.7546 172.986 27.9901 172.986 23.9126V23.7743C172.986 19.7659 176.096 16.9323 180.243 16.9323C184.389 16.9323 187.569 19.7659 187.569 23.7743V23.9126C187.569 27.921 184.389 30.7546 180.243 30.7546Z" fill="#254F9C"/>
</svg>
